# xmcd CD database file
#
# Track frame offsets:
#	150
#	10538
#	18632
#	30848
#	42813
#	52008
#	62130
#	72982
#	83528
#	92885
#	110123
#	122150
#	133253
#	146743
#
# Disc length: 2095 seconds
#
# Revision: 1
# Processed by: cddbd v1.5.2PL0 Copyright (c) Steve Scherf et al.
# Submitted via: CDex 1.51
#
DISCID=c0082d0e
DTITLE=Various Artist - Country Classics D3
DYEAR=1900
DGENRE=Country
TTITLE0=Buck Owens - Excuse Me (I think I've got a heartache)
TTITLE1=Johnny Cash - Guess things happen that way
TTITLE2=Frankie Laine - High Noon
TTITLE3=Billie Jo Spears - Misty Blue
TTITLE4=The Harden Trio - Tippytoeing
TTITLE5=Willie Nelson - Pride wins again
TTITLE6=Dolly Parton - It wasn't God who made Honky Tonk Angels
TTITLE7=Patsy Cline - I don't wanna
TTITLE8=Georges Jones - The race is on
TTITLE9=Bobby Bare - Sylvia's Mother
TTITLE10=Charlie Rich - She
TTITLE11=Merle Kilgore - Love has made You beautiful
TTITLE12=Wilma Burgess - Baby
TTITLE13=Carl Belew - Am I that easy to forget
EXTD=
EXTT0=
EXTT1=
EXTT2=
EXTT3=
EXTT4=
EXTT5=
EXTT6=
EXTT7=
EXTT8=
EXTT9=
EXTT10=
EXTT11=
EXTT12=
EXTT13=
PLAYORDER=
